<svg width="127" height="26" viewBox="0 0 127 26" fill="none" xmlns="http://www.w3.org/2000/svg">
<path fill-rule="evenodd" clip-rule="evenodd" d="M5.23763 16.9663C5.23763 17.5187 5.2384 18.3779 5.23927 19.339V19.3393C5.24136 21.6487 5.24398 24.5457 5.23763 25.1831C5.23763 25.7175 4.97671 25.9762 4.44642 25.9851C3.39465 25.994 2.33362 25.994 1.28185 25.9851C0.742023 25.9851 0.5 25.7273 0.5 25.1831V0.771776C0.5 0.24635 0.732666 0.0161972 1.26323 0.0161972C2.17073 0.0161972 3.07823 0.0121479 3.98573 0.00809862C6.14976 -0.00155743 8.3138 -0.0112135 10.4778 0.0340386C14.8989 0.126813 18.1846 3.37839 18.38 7.75397C18.4824 10.0849 18.0356 12.25 16.5092 14.0921C14.9641 15.9619 12.9072 16.8646 10.4965 16.9574C9.16919 17.0119 6.46747 16.9803 5.54402 16.9695H5.54392H5.54386L5.54202 16.9695L5.53727 16.9694L5.53295 16.9694C5.37467 16.9675 5.27068 16.9663 5.23763 16.9663ZM5.25625 13.0876C5.74721 13.0876 6.23187 13.0866 6.71269 13.0856C7.66299 13.0836 8.59832 13.0817 9.53772 13.0876C10.7385 13.0974 11.7158 12.6362 12.4604 11.7246C13.6145 10.3151 13.9123 8.69421 13.447 6.96182C12.9162 4.99035 11.4086 3.88508 9.36093 3.88508H5.26552C5.25625 6.97074 5.25625 10.002 5.25625 13.0876ZM34.5441 25.1278C34.7858 25.7175 35.1677 26.0493 35.8565 25.994C36.2846 25.9574 38.0904 25.9851 38.5558 25.994C39.4307 25.994 39.7099 25.5792 39.347 24.7871C35.6645 16.751 31.9849 8.71205 28.308 0.67008C28.1033 0.218695 27.8241 0.0527707 27.3401 0.0616913C26.8747 0.071504 26.6699 0.329311 26.4931 0.706654C25.1872 3.53693 22.8181 8.6572 20.5894 13.4741L20.5887 13.4756C18.1315 18.7861 15.8452 23.7276 15.3425 24.8245C14.9981 25.5614 15.2866 25.9851 16.0964 25.9851H18.7955C19.6054 25.9851 19.8659 25.8192 20.1731 25.0823C20.3094 24.7586 20.4463 24.4355 20.5833 24.1125L20.5836 24.1117L20.584 24.1109L20.5843 24.11L20.5844 24.1098C20.9613 23.2206 21.3379 22.3322 21.6995 21.4338C21.8298 21.1118 21.9881 20.9735 22.3696 20.9735C25.5891 20.9916 28.7997 20.983 32.0186 20.9743L32.3289 20.9735C32.6733 20.9735 32.8501 21.0564 32.9804 21.3883C33.3258 22.2489 33.6887 23.1053 34.0511 23.9604L34.0512 23.9606L34.0515 23.9613L34.0518 23.962L34.0522 23.9628L34.0525 23.9635L34.0528 23.9642L34.0531 23.965C34.2174 24.3528 34.3817 24.7403 34.5441 25.1278ZM23.7103 17.0582H30.989C29.7604 14.3865 28.5598 11.7709 27.3125 9.03498C26.0738 11.7799 24.9013 14.3865 23.71 17.0582H23.7103ZM53.0555 0.614774C51.4288 3.02067 47.6572 8.50955 47.3873 8.89671H47.387C47.3291 8.81647 46.646 7.82288 45.7373 6.50127C44.4537 4.6345 42.7202 2.11327 41.6632 0.58712C41.5142 0.374809 41.235 0.108081 41.0024 0.0991607C39.7272 0.0438527 38.4613 0.0527733 37.1862 0.0804273C36.6743 0.089348 36.4136 0.5782 36.6184 1.04743C36.6604 1.15442 38.9415 4.55093 41.2515 7.99054L41.2519 7.99119L41.2526 7.99219L41.2533 7.9933C42.525 9.88679 43.8052 11.7931 44.7254 13.1706C44.8747 13.3983 44.9554 13.6635 44.958 13.9351C44.9641 17.6482 44.967 21.3606 44.967 25.0725C44.967 25.755 45.1904 25.9851 45.8792 25.9851H48.7181C49.5 25.9851 49.714 25.7728 49.714 25.0083C49.7173 21.3755 49.7143 17.7397 49.705 14.101C49.694 13.7065 49.8115 13.3189 50.0401 12.9957C52.6959 9.12329 55.3454 5.24816 57.9888 1.37035C58.1936 1.07508 58.3611 0.789619 58.1749 0.430117C57.9888 0.061694 57.6351 0.061694 57.2907 0.061694C56.9885 0.061694 56.6855 0.0632409 56.3821 0.0647895C55.6299 0.06863 54.8757 0.0724806 54.1261 0.0527733C53.6418 0.0438527 53.3254 0.209777 53.0555 0.614774ZM126.5 21.8299C126.479 24.1308 124.586 25.9821 122.265 25.972C119.944 25.9619 118.068 24.0943 118.067 21.7933C118.095 19.49 119.984 17.6291 122.284 17.6389C123.405 17.6348 124.482 18.0754 125.273 18.8626C126.065 19.6497 126.507 20.7181 126.5 21.8299ZM125.988 21.8673C125.922 23.9119 124.266 25.5061 122.227 25.4695C121.24 25.4565 120.298 25.0514 119.615 24.3448C118.931 23.6382 118.561 22.6892 118.589 21.7103C118.626 19.7112 120.32 18.118 122.386 18.1546C124.387 18.1911 126.044 19.8959 125.988 21.8673ZM122.972 22.1617C123.109 22.356 123.243 22.5456 123.375 22.7331L123.376 22.7339C123.614 23.0703 123.847 23.3999 124.08 23.7371C123.661 23.903 123.428 23.7737 123.261 23.4516C123.2 23.3298 123.121 23.2194 123.043 23.1093L123.042 23.1092L123.042 23.1091C122.978 23.0193 122.915 22.9297 122.861 22.8343C122.535 22.2812 122.07 22.0975 121.399 22.2634V23.7737C121.222 23.7835 121.102 23.7924 120.934 23.8111V20.2456C121.135 20.2456 121.335 20.2431 121.533 20.2406H121.533C121.994 20.2348 122.449 20.2291 122.897 20.2554C123.437 20.283 123.735 20.6051 123.791 21.0841C123.848 21.5542 123.615 21.9128 123.112 22.1064C123.068 22.1313 123.021 22.1499 122.972 22.1617ZM121.824 21.7688C121.688 21.7672 121.55 21.7656 121.408 21.7656V20.6327C121.544 20.6327 121.677 20.6311 121.809 20.6296C122.133 20.6257 122.448 20.622 122.758 20.6416C123.094 20.6693 123.317 20.8718 123.308 21.2134C123.298 21.5266 123.112 21.738 122.786 21.7567C122.47 21.7763 122.154 21.7726 121.824 21.7688Z" fill="white"/>
<path fill-rule="evenodd" clip-rule="evenodd" d="M111.12 15.6127C111.251 15.8616 111.362 16.0837 111.474 16.296C112.964 19.0764 114.454 21.86 115.943 24.6469C116.037 24.7898 116.109 24.9455 116.157 25.109C116.269 25.5336 116.017 25.9038 115.579 25.9127C114.277 25.9314 112.973 25.9216 111.669 25.9216C111.279 25.9216 111.158 25.6264 111.028 25.3489C109.565 22.3652 108.095 19.3814 106.652 16.3888C106.475 16.0186 106.27 15.8616 105.842 15.8714C104.846 15.8991 103.859 15.8991 102.863 15.8714C102.453 15.8616 102.332 16.0007 102.332 16.4066C102.341 19.2432 102.341 22.0699 102.341 24.9056C102.341 25.7923 102.211 25.9216 101.327 25.9216H98.6268C97.9101 25.9216 97.7148 25.737 97.7148 25.026V0.868812C97.7148 0.23103 97.9291 0.00981309 98.571 0.00981309C101.97 0.00981309 105.367 -0.00891897 108.765 0.00981309C112.563 0.0285452 115.663 2.49493 116.334 6.12538C117.051 9.98687 115.44 13.5522 111.66 15.354C111.484 15.4281 111.316 15.511 111.12 15.6127ZM102.416 12.1116C102.621 12.1116 106.457 12.1018 108.225 12.1116C108.912 12.1153 109.581 11.8908 110.125 11.4738C111.521 10.4391 112.173 8.46243 111.688 6.71678C111.176 4.85963 109.818 3.82491 107.89 3.82491H102.416V12.1116ZM65.2014 3.82491V11.0947H73.8964C74.6319 11.0947 74.8462 11.3079 74.8462 12.0188V14.0508C74.8462 14.6886 74.6229 14.9107 73.9801 14.9107H65.2106V22.1805H75.6466C76.447 22.1805 76.6243 22.3563 76.6243 23.1501V25.0903C76.6243 25.7833 76.41 25.9956 75.7123 25.9956C71.308 25.9956 61.6823 26.0054 61.282 25.9956C60.8219 25.9876 60.5858 25.8128 60.519 25.4301C60.5087 25.3712 60.5 9.0351 60.5 1.09092C60.5 0.166803 60.6583 0.0187302 61.5706 0.0187302H75.5719C76.4569 0.0187302 76.6153 0.175723 76.6153 1.07219V2.91952C76.6153 3.64026 76.419 3.83383 75.6745 3.83383C72.3884 3.82491 65.4434 3.82491 65.2014 3.82491ZM79.2011 12.9795V0.924115C79.2011 0.166804 79.3685 0 80.123 0H94.3666C95.0932 0 95.2786 0.185537 95.2786 0.887543V2.96591C95.2786 3.62153 95.0932 3.81599 94.4225 3.81599H84.5074C83.8285 3.81599 83.8285 3.81599 83.8285 4.48053C83.8285 6.5134 83.8375 8.54539 83.8186 10.5783C83.8186 10.9841 83.9402 11.0947 84.3498 11.0947C87.0309 11.0769 89.721 11.0858 92.4021 11.0858C93.3798 11.0858 93.5104 11.2152 93.5104 12.1571V14.0972C93.5104 14.6797 93.2961 14.9009 92.6911 14.9009C91.2758 14.9107 85.6994 14.9107 84.312 14.9009C83.9681 14.9009 83.8186 14.966 83.8186 15.354C83.8375 17.4788 83.8375 19.6035 83.8186 21.7283C83.8186 22.1065 83.9582 22.1805 84.312 22.1805C87.6359 22.1716 90.9499 22.1716 94.2738 22.1716C95.1489 22.1716 95.2786 22.301 95.2786 23.1876V25.1277C95.2786 25.7833 95.0832 25.9867 94.4314 25.9867H80.1877C79.3594 25.9867 79.2109 25.8386 79.2109 25.026C79.201 21.0165 79.1977 17.001 79.201 12.9795H79.2011Z" fill="white"/>
</svg>
